# xmcd
#
# Track frame offsets:
#	182
#	17025
#	39405
#	62282
#	81232
#	97645
#	118357
#
# Disc length: 1900 seconds
#
# Revision: 1
# Processed by: cddbd v1.4PL0 Copyright (c) Steve Scherf et al.
# Submitted via: audiograbber 1.80
#
DISCID=4a076a07
DTITLE=Driven - Spirit
DYEAR=1900
DGENRE=
TTITLE0=Two Black Cats
TTITLE1=Spirit
TTITLE2=Come Home
TTITLE3=Security Gaurd
TTITLE4=Free Reign
TTITLE5=The Soft Decade
TTITLE6=Eye of the Storm
EXTD=
EXTT0=
EXTT1=
EXTT2=
EXTT3=
EXTT4=
EXTT5=
EXTT6=
PLAYORDER=
